HIERARCHY
ROOT Hips
{
	OFFSET 0.00000 0.00000 0.00000
	CHANNELS 6 Xposition Yposition Zposition Zrotation Yrotation Xrotation 
	JOINT LHipJoint
	{
		OFFSET 0 0 0
		CHANNELS 3 Zrotation Yrotation Xrotation
		JOINT LeftUpLeg
		{
			OFFSET 1.38280 -1.96574 0.54427
			CHANNELS 3 Zrotation Yrotation Xrotation
			JOINT LeftLeg
			{
				OFFSET 2.72096 -7.47578 0.00000
				CHANNELS 3 Zrotation Yrotation Xrotation
				JOINT LeftFoot
				{
					OFFSET 2.73041 -7.50176 0.00000
					CHANNELS 3 Zrotation Yrotation Xrotation
					JOINT LeftToeBase
					{
						OFFSET 0.16150 -0.44371 2.18031
						CHANNELS 3 Zrotation Yrotation Xrotation
						End Site
						{
							OFFSET 0.00000 -0.00000 1.12127
						}
					}
				}
			}
		}
	}
	JOINT RHipJoint
	{
		OFFSET 0 0 0
		CHANNELS 3 Zrotation Yrotation Xrotation
		JOINT RightUpLeg
		{
			OFFSET -1.57224 -1.96575 0.54427
			CHANNELS 3 Zrotation Yrotation Xrotation
			JOINT RightLeg
			{
				OFFSET -2.95935 -8.13076 0.00000
				CHANNELS 3 Zrotation Yrotation Xrotation
				JOINT RightFoot
				{
					OFFSET -2.52345 -6.93311 0.00000
					CHANNELS 3 Zrotation Yrotation Xrotation
					JOINT RightToeBase
					{
						OFFSET -0.04475 -0.10171 1.86688
						CHANNELS 3 Zrotation Yrotation Xrotation
						End Site
						{
							OFFSET -0.00000 -0.00000 0.95157
						}
					}
				}
			}
		}
	}
	JOINT LowerBack
	{
		OFFSET 0 0 0
		CHANNELS 3 Zrotation Yrotation Xrotation
		JOINT Spine
		{
			OFFSET 0.00669 2.07367 0.09104
			CHANNELS 3 Zrotation Yrotation Xrotation
			JOINT Spine1
			{
				OFFSET -0.00664 2.06198 -0.04732
				CHANNELS 3 Zrotation Yrotation Xrotation
				JOINT Neck
				{
					OFFSET 0 0 0
					CHANNELS 3 Zrotation Yrotation Xrotation
					JOINT Neck1
					{
						OFFSET -0.00021 1.49948 0.16345
						CHANNELS 3 Zrotation Yrotation Xrotation
						JOINT Head
						{
							OFFSET 0.06080 1.50567 -0.26702
							CHANNELS 3 Zrotation Yrotation Xrotation
							End Site
							{
								OFFSET 0.01726 1.56470 -0.11854
							}
						}
					}
				}
				JOINT LeftShoulder
				{
					OFFSET 0 0 0
					CHANNELS 3 Zrotation Yrotation Xrotation
					JOINT LeftArm
					{
						OFFSET 3.14993 0.82932 -0.22488
						CHANNELS 3 Zrotation Yrotation Xrotation
						JOINT LeftForeArm
						{
							OFFSET 5.68236 -0.00000 -0.00000
							CHANNELS 3 Zrotation Yrotation Xrotation
							JOINT LeftHand
							{
								OFFSET 3.17112 -0.00000 0.00000
								CHANNELS 3 Zrotation Yrotation Xrotation
								JOINT LeftFingerBase
								{
									OFFSET 0 0 0
									CHANNELS 3 Zrotation Yrotation Xrotation
									JOINT LeftHandIndex1
									{
										OFFSET 0.63269 -0.00000 0.00000
										CHANNELS 3 Zrotation Yrotation Xrotation
										End Site
										{
											OFFSET 0.51009 -0.00000 0.00000
										}
									}
								}
								JOINT LThumb
								{
									OFFSET 0 0 0
									CHANNELS 3 Zrotation Yrotation Xrotation
									End Site
									{
										OFFSET 0.51788 -0.00000 0.51788
									}
								}
							}
						}
					}
				}
				JOINT RightShoulder
				{
					OFFSET 0 0 0
					CHANNELS 3 Zrotation Yrotation Xrotation
					JOINT RightArm
					{
						OFFSET -3.10571 0.91279 -0.33334
						CHANNELS 3 Zrotation Yrotation Xrotation
						JOINT RightForeArm
						{
							OFFSET -5.87120 -0.00000 -0.00000
							CHANNELS 3 Zrotation Yrotation Xrotation
							JOINT RightHand
							{
								OFFSET -3.37589 -0.00000 0.00000
								CHANNELS 3 Zrotation Yrotation Xrotation
								JOINT RightFingerBase
								{
									OFFSET 0 0 0
									CHANNELS 3 Zrotation Yrotation Xrotation
									JOINT RightHandIndex1
									{
										OFFSET -0.60326 -0.00000 0.00000
										CHANNELS 3 Zrotation Yrotation Xrotation
										End Site
										{
											OFFSET -0.48636 -0.00000 0.00000
										}
									}
								}
								JOINT RThumb
								{
									OFFSET 0 0 0
									CHANNELS 3 Zrotation Yrotation Xrotation
									End Site
									{
										OFFSET -0.49379 -0.00000 0.49379
									}
								}
							}
						}
					}
				}
			}
		}
	}
}
MOTION
Frames: 6
Frame Time: .0083333
25.1872 18.2743 -3.5942 1392.4600 374.7780 -1408.9400 0.0000 0.0000 0.0000 35.3655 -7.7917 -57.1682 3.9821 12.1365 36.2167 1.8384 4.2859 -27.4434 0.9422 6.1825 17.3147 0.0000 0.0000 0.0000 -19.5747 5.5490 -52.5604 -4.4228 -12.7027 38.2655 -1.3403 -7.3209 -25.6253 -1.0430 6.4950 -18.2277 -2.0114 2.6744 12.9424 1.7768 3.2572 10.0036 2.6514 1.4166 3.0750 -9.8286 -5.7098 -17.0691 25.6789 -10.7289 15.7775 9.4079 -3.3726 10.0558 0.0000 0.0000 0.0000 -5.7457 -18.2096 -22.4711 121.3343 -55.9438 -86.7667 -0.0000 0.0000 -31.4447 16.2214 35.7149 9.6387 -7.1250 0.0000 -0.0000 -22.5084 65.4732 -11.3935 0.0000 0.0000 0.0000 84.0891 -16.4486 -16.1766 -13.7068 22.3140 -2.7158 0.0000 0.0000 29.0188 -33.4398 26.4005 -16.3639 7.1250 -0.0000 -0.0000 -2.0566 0.7507 -2.0847
25.1770 18.2530 -3.5646 1392.6100 374.7510 -1409.0500 0.0000 0.0000 0.0000 35.0064 -7.5690 -57.4561 4.1249 12.3248 36.8910 1.8339 3.8275 -27.1886 0.8974 6.0375 16.8932 0.0000 0.0000 0.0000 -16.6414 4.7629 -54.0977 -4.9166 -13.2893 40.4613 -1.4351 -6.7612 -25.9698 -0.8490 5.8766 -16.4267 -2.6099 2.4179 12.6276 1.8368 2.8810 10.0242 3.1029 1.1954 3.2621 -10.3645 -5.5210 -17.1067 25.4704 -10.2897 15.9247 9.5090 -3.2049 10.0249 -0.0000 -0.0000 0.0000 -9.8698 -16.7593 -19.2095 118.1818 -56.7753 -84.1419 -0.0000 0.0000 -31.0329 16.5790 35.3615 9.7759 -7.1250 0.0000 -0.0000 -21.7175 65.2534 -10.8657 -0.0000 -0.0000 0.0000 84.5762 -16.3505 -18.1891 -13.0984 21.4312 -2.4891 0.0000 0.0000 30.0004 -33.2577 26.4599 -16.2892 7.1250 -0.0000 -0.0000 -1.9383 0.7654 -1.9652
25.1680 18.2297 -3.5363 1392.8600 374.6890 -1409.2000 0.0000 0.0000 0.0000 34.4612 -7.3286 -57.7756 4.2818 12.5262 37.6199 1.8220 3.3530 -26.8837 0.8206 5.7799 16.1473 0.0000 0.0000 0.0000 -13.9452 4.1913 -55.4419 -5.4285 -13.8507 42.6425 -1.4667 -6.2175 -25.8669 -0.7281 5.4519 -15.2020 -3.2120 2.1855 12.3547 1.8476 2.5383 10.0372 3.4976 0.9913 3.4286 -10.8447 -5.3465 -17.1525 25.2415 -9.8853 16.1039 9.5867 -3.0504 10.0087 -0.0000 0.0000 0.0000 -13.7851 -15.4088 -16.2133 115.0394 -57.4931 -81.5022 -0.0000 0.0000 -30.5782 16.4207 34.8970 9.5703 -7.1250 0.0000 -0.0000 -21.4048 64.7857 -10.4715 -0.0000 0.0000 0.0000 85.0181 -16.3147 -20.3299 -12.5731 20.6585 -2.3005 0.0000 0.0000 30.9044 -32.8632 26.5961 -16.1310 7.1250 -0.0000 -0.0000 -1.6810 0.8063 -1.7052
25.1599 18.2027 -3.5092 1393.2100 374.5830 -1409.3400 0.0000 0.0000 0.0000 33.7685 -7.0662 -58.1472 4.4569 12.7447 38.4203 1.8117 2.8585 -26.5880 0.7299 5.4587 15.2215 0.0000 0.0000 0.0000 -11.4907 3.8300 -56.6354 -5.9521 -14.3817 44.7891 -1.4152 -5.8621 -25.2672 -0.7454 5.5148 -15.3828 -3.7765 1.9888 12.0719 1.7798 2.2495 10.0467 3.7817 0.8173 3.6045 -11.1690 -5.1766 -17.1926 24.9932 -9.5161 16.2448 9.6161 -2.9065 9.9765 -0.0000 -0.0000 0.0000 -17.4484 -14.2057 -13.4130 112.0201 -58.0862 -78.9474 -0.0000 0.0000 -30.0707 15.9405 34.3850 9.1632 -7.1250 0.0000 -0.0000 -21.4201 64.1862 -10.1815 -0.0000 -0.0000 0.0000 85.4836 -16.3179 -22.6162 -12.1356 20.0077 -2.1485 0.0000 0.0000 31.7570 -32.3295 26.8129 -15.9333 7.1250 -0.0000 -0.0000 -1.3273 0.8982 -1.3483
25.1518 18.1701 -3.4829 1393.6400 374.4370 -1409.4500 0.0000 0.0000 0.0000 32.9626 -6.7747 -58.5862 4.6540 12.9832 39.3055 1.8055 2.3266 -26.3148 0.6522 5.1658 14.3819 0.0000 0.0000 0.0000 -9.2324 3.6245 -57.7246 -6.4829 -14.8805 46.8902 -1.2815 -5.7644 -24.1727 -0.9659 6.2573 -17.5329 -4.2861 1.8207 11.7355 1.6281 2.0091 10.0537 3.9411 0.6715 3.8117 -11.3265 -5.0047 -17.2318 24.7513 -9.1814 16.3417 9.6061 -2.7698 9.9299 0.0000 0.0000 0.0000 -20.8516 -13.1221 -10.7632 109.2494 -58.5526 -76.5894 -0.0000 0.0000 -29.5222 15.5132 33.9044 8.8014 -7.1250 0.0000 -0.0000 -21.4205 63.6316 -9.9048 0.0000 0.0000 0.0000 85.9759 -16.3426 -24.9983 -11.7802 19.4742 -2.0284 0.0000 0.0000 32.5517 -31.7677 27.0675 -15.7369 7.1250 -0.0000 -0.0000 -0.9508 1.0247 -0.9678
25.1431 18.1317 -3.4573 1394.1200 374.2580 -1409.5500 0.0000 0.0000 0.0000 32.0774 -6.4608 -59.0868 4.8744 13.2410 40.2773 1.8012 1.7397 -26.0435 0.6041 4.9751 13.8376 0.0000 0.0000 0.0000 -7.0992 3.4988 -58.7399 -7.0166 -15.3459 48.9371 -1.0888 -5.8345 -22.6322 -1.4466 7.6031 -21.5148 -4.7497 1.6737 11.3357 1.4105 1.8078 10.0553 4.0006 0.5486 4.0499 -11.3596 -4.8300 -17.2747 24.5500 -8.8797 16.4092 9.5808 -2.6385 9.8800 0.0000 -0.0000 0.0000 -24.0203 -12.1117 -8.2387 106.8328 -58.9018 -74.5239 -0.0000 0.0000 -28.9609 15.2425 33.5034 8.5538 -7.1250 0.0000 -0.0000 -21.3351 63.1925 -9.6443 0.0000 -0.0000 0.0000 86.4566 -16.3805 -27.4133 -11.4972 19.0464 -1.9351 0.0000 0.0000 33.2570 -31.2601 27.2440 -15.5305 7.1250 -0.0000 -0.0000 -0.6213 1.0813 -0.6330
